<svg width="38" height="38" viewBox="0 0 38 38" fill="none" xmlns="http://www.w3.org/2000/svg">
<path d="M34.9568 13.216C34.7385 12.9919 34.4752 12.8165 34.1842 12.7014V7.35766C34.1842 7.05657 34.0646 6.76782 33.8517 6.55492C33.6388 6.34202 33.35 6.22241 33.0489 6.22241C32.7491 6.22651 32.4627 6.34743 32.2507 6.55945C32.0387 6.77147 31.9178 7.05785 31.9137 7.35766V12.4291H31.5812C31.049 10.6372 29.9525 9.06499 28.4547 7.94664C26.9569 6.82828 25.1379 6.22353 23.2687 6.22241H14.9261C13.0568 6.22353 11.2379 6.82828 9.7401 7.94664C8.2423 9.06499 7.14571 10.6372 6.61359 12.4291H6.175V7.35766C6.175 7.05657 6.0554 6.76782 5.84249 6.55492C5.62959 6.34202 5.34084 6.22241 5.03975 6.22241C4.73867 6.22241 4.44991 6.34202 4.23701 6.55492C4.02411 6.76782 3.9045 7.05657 3.9045 7.35766V12.7172C3.62762 12.835 3.37562 13.0042 3.16192 13.216C2.65946 13.7241 2.37684 14.4093 2.375 15.1239V22.8759C2.37459 23.2299 2.444 23.5805 2.57929 23.9077C2.71457 24.2348 2.91305 24.5321 3.16337 24.7824C3.41369 25.0327 3.71093 25.2312 4.03807 25.3665C4.36521 25.5017 4.71583 25.5712 5.06984 25.5707H6.5835C7.11563 27.3627 8.21221 28.9348 9.71002 30.0532C11.2078 31.1715 13.0267 31.7763 14.896 31.7774H23.1024C24.9717 31.7763 26.7906 31.1715 28.2884 30.0532C29.7862 28.9348 30.8828 27.3627 31.4149 25.5707H32.927C33.281 25.5712 33.6316 25.5017 33.9588 25.3665C34.2859 25.2312 34.5831 25.0327 34.8335 24.7824C35.0838 24.5321 35.2823 24.2348 35.4176 23.9077C35.5528 23.5805 35.6223 23.2299 35.6218 22.8759V15.1239C35.6535 14.4272 35.4144 13.7432 34.9568 13.216ZM6.327 23.3002H5.13C5.01705 23.3012 4.90833 23.2573 4.82759 23.1783C4.75311 23.0948 4.7105 22.9877 4.70725 22.8759V15.1239C4.70381 15.0158 4.74308 14.9106 4.81656 14.8312C4.89005 14.7518 4.99184 14.7045 5.09992 14.6996H6.327C6.32011 14.7654 6.32011 14.8317 6.327 14.8975V23.1023C6.32011 23.1681 6.32011 23.2345 6.327 23.3002ZM13.1401 18.1829V14.0947C13.12 13.9148 13.1382 13.7326 13.1933 13.5602C13.2485 13.3877 13.3394 13.2288 13.4601 13.0939C13.5809 12.9589 13.7287 12.851 13.894 12.7771C14.0593 12.7032 14.2383 12.665 14.4194 12.665C14.6005 12.665 14.7795 12.7032 14.9448 12.7771C15.1101 12.851 15.258 12.9589 15.3787 13.0939C15.4995 13.2288 15.5904 13.3877 15.6455 13.5602C15.7007 13.7326 15.7188 13.9148 15.6988 14.0947V18.1829C15.7188 18.3629 15.7007 18.545 15.6455 18.7175C15.5904 18.89 15.4995 19.0489 15.3787 19.1838C15.258 19.3187 15.1101 19.4267 14.9448 19.5006C14.7795 19.5745 14.6005 19.6127 14.4194 19.6127C14.2383 19.6127 14.0593 19.5745 13.894 19.5006C13.7287 19.4267 13.5809 19.3187 13.4601 19.1838C13.3394 19.0489 13.2485 18.89 13.1933 18.7175C13.1382 18.545 13.12 18.3629 13.1401 18.1829ZM22.2237 25.7512H16.017C15.6758 25.7512 15.3486 25.6157 15.1073 25.3744C14.8661 25.1332 14.7305 24.806 14.7305 24.4648C14.7305 24.1236 14.8661 23.7964 15.1073 23.5551C15.3486 23.3139 15.6758 23.1783 16.017 23.1783H22.2237C22.5651 23.1783 22.8925 23.3139 23.1339 23.5554C23.3753 23.7968 23.5109 24.1242 23.5109 24.4656C23.5109 24.807 23.3753 25.1344 23.1339 25.3758C22.8925 25.6172 22.5651 25.7512 22.2237 25.7512ZM25.0547 18.1845C25.0547 18.5259 24.919 18.8533 24.6776 19.0947C24.4362 19.3361 24.1088 19.4717 23.7674 19.4717C23.426 19.4717 23.0986 19.3361 22.8572 19.0947C22.6158 18.8533 22.4802 18.5259 22.4802 18.1845V14.0947C22.4802 13.7533 22.6158 13.4259 22.8572 13.1845C23.0986 12.9431 23.426 12.8075 23.7674 12.8075C24.1088 12.8075 24.4362 12.9431 24.6776 13.1845C24.919 13.4259 25.0547 13.7533 25.0547 14.0947V18.1845ZM33.5176 22.8775C33.5176 22.9883 33.4733 23.0992 33.3973 23.1799C33.3571 23.2192 33.3096 23.2502 33.2574 23.2711C33.2052 23.2921 33.1495 23.3025 33.0933 23.3018H31.8978C31.9047 23.236 31.9047 23.1697 31.8978 23.1039V14.8389C31.9047 14.7731 31.9047 14.7068 31.8978 14.641H33.1091C33.1629 14.6407 33.2162 14.6513 33.2657 14.6723C33.3153 14.6932 33.36 14.7241 33.3973 14.7629C33.4733 14.8452 33.516 14.9529 33.5176 15.0637V22.8775Z" fill="black"/>
</svg>