<svg width="100" height="100" viewBox="0 0 100 100" fill="none" xmlns="http://www.w3.org/2000/svg">
<path d="M37.5125 25C37.5125 21.6881 38.8281 18.5118 41.17 16.17C43.5119 13.8281 46.6881 12.5125 50 12.5125C53.3119 12.5125 56.4881 13.8281 58.83 16.17C61.1719 18.5118 62.4875 21.6881 62.4875 25C62.4875 28.3118 61.1719 31.4881 58.83 33.8299C56.4881 36.1718 53.3119 37.4875 50 37.4875C46.6881 37.4875 43.5119 36.1718 41.17 33.8299C38.8281 31.4881 37.5125 28.3118 37.5125 25ZM50 18.7625C49.1809 18.7625 48.3698 18.9238 47.613 19.2373C46.8562 19.5507 46.1686 20.0102 45.5894 20.5894C45.0102 21.1686 44.5508 21.8562 44.2373 22.613C43.9238 23.3697 43.7625 24.1808 43.7625 25C43.7625 25.8191 43.9238 26.6302 44.2373 27.3869C44.5508 28.1437 45.0102 28.8313 45.5894 29.4105C46.1686 29.9897 46.8562 30.4492 47.613 30.7626C48.3698 31.0761 49.1809 31.2375 50 31.2375C51.6543 31.2375 53.2408 30.5803 54.4106 29.4105C55.5803 28.2408 56.2375 26.6542 56.2375 25C56.2375 23.3457 55.5803 21.7591 54.4106 20.5894C53.2408 19.4196 51.6543 18.7625 50 18.7625ZM68.75 28.125C68.75 26.8938 68.9925 25.6747 69.4636 24.5373C69.9348 23.3999 70.6253 22.3664 71.4959 21.4958C72.3664 20.6253 73.3999 19.9347 74.5373 19.4636C75.6748 18.9924 76.8939 18.75 78.125 18.75C79.3561 18.75 80.5752 18.9924 81.7127 19.4636C82.8501 19.9347 83.8836 20.6253 84.7541 21.4958C85.6247 22.3664 86.3152 23.3999 86.7864 24.5373C87.2575 25.6747 87.5 26.8938 87.5 28.125C87.5 30.6114 86.5123 32.9959 84.7541 34.7541C82.996 36.5122 80.6114 37.5 78.125 37.5C75.6386 37.5 73.254 36.5122 71.4959 34.7541C69.7377 32.9959 68.75 30.6114 68.75 28.125ZM78.125 25C77.2962 25 76.5013 25.3292 75.9153 25.9152C75.3292 26.5013 75 27.2961 75 28.125C75 28.9538 75.3292 29.7486 75.9153 30.3347C76.5013 30.9207 77.2962 31.25 78.125 31.25C78.9538 31.25 79.7487 30.9207 80.3347 30.3347C80.9208 29.7486 81.25 28.9538 81.25 28.125C81.25 27.2961 80.9208 26.5013 80.3347 25.9152C79.7487 25.3292 78.9538 25 78.125 25ZM21.875 18.75C19.3886 18.75 17.004 19.7377 15.2459 21.4958C13.4877 23.254 12.5 25.6385 12.5 28.125C12.5 30.6114 13.4877 32.9959 15.2459 34.7541C17.004 36.5122 19.3886 37.5 21.875 37.5C24.3614 37.5 26.746 36.5122 28.5041 34.7541C30.2623 32.9959 31.25 30.6114 31.25 28.125C31.25 25.6385 30.2623 23.254 28.5041 21.4958C26.746 19.7377 24.3614 18.75 21.875 18.75ZM18.75 28.125C18.75 27.2961 19.0792 26.5013 19.6653 25.9152C20.2513 25.3292 21.0462 25 21.875 25C22.7038 25 23.4987 25.3292 24.0847 25.9152C24.6708 26.5013 25 27.2961 25 28.125C25 28.9538 24.6708 29.7486 24.0847 30.3347C23.4987 30.9207 22.7038 31.25 21.875 31.25C21.0462 31.25 20.2513 30.9207 19.6653 30.3347C19.0792 29.7486 18.75 28.9538 18.75 28.125ZM26.675 43.75C25.5778 45.6502 25.0001 47.8057 25 50H12.5V65.625C12.4995 67.1796 12.8856 68.7099 13.6235 70.0782C14.3615 71.4465 15.4281 72.6098 16.7274 73.4634C18.0267 74.317 19.5179 74.8341 21.0667 74.9681C22.6155 75.1021 24.1734 74.8489 25.6 74.2312C26.0625 76.2999 26.7875 78.275 27.725 80.1187C25.3529 81.0765 22.7819 81.4372 20.2379 81.1691C17.6938 80.9011 15.2544 80.0125 13.134 78.5814C11.0136 77.1503 9.277 75.2205 8.07671 72.9614C6.87641 70.7023 6.24915 68.1831 6.25 65.625V50C6.25 48.3424 6.90848 46.7526 8.08058 45.5805C9.25269 44.4084 10.8424 43.75 12.5 43.75H26.675ZM72.275 80.1187C74.6471 81.0765 77.2181 81.4372 79.7621 81.1691C82.3062 80.9011 84.7456 80.0125 86.866 78.5814C88.9864 77.1503 90.723 75.2205 91.9233 72.9614C93.1236 70.7023 93.7509 68.1831 93.75 65.625V50C93.75 48.3424 93.0915 46.7526 91.9194 45.5805C90.7473 44.4084 89.1576 43.75 87.5 43.75H73.325C74.3875 45.5875 75 47.7187 75 50H87.5V65.625C87.5005 67.1796 87.1144 68.7099 86.3765 70.0782C85.6385 71.4465 84.5719 72.6098 83.2726 73.4634C81.9733 74.317 80.4821 74.8341 78.9333 74.9681C77.3845 75.1021 75.8266 74.8489 74.4 74.2312C73.925 76.3062 73.2167 78.2687 72.275 80.1187ZM37.5 43.7437C35.8424 43.7437 34.2527 44.4022 33.0806 45.5743C31.9085 46.7464 31.25 48.3361 31.25 49.9937V68.75C31.25 73.7228 33.2254 78.4919 36.7417 82.0082C40.2581 85.5245 45.0272 87.5 50 87.5C54.9728 87.5 59.7419 85.5245 63.2583 82.0082C66.7746 78.4919 68.75 73.7228 68.75 68.75V50C68.75 48.3424 68.0915 46.7526 66.9194 45.5805C65.7473 44.4084 64.1576 43.75 62.5 43.75L37.5 43.7437ZM37.5 49.9937H62.5V68.75C62.5 72.0652 61.183 75.2446 58.8388 77.5888C56.4946 79.933 53.3152 81.25 50 81.25C46.6848 81.25 43.5054 79.933 41.1612 77.5888C38.817 75.2446 37.5 72.0652 37.5 68.75V49.9937Z" fill="#5761D7"/>
</svg>