<svg width="37" height="37" viewBox="0 0 37 37" fill="none" xmlns="http://www.w3.org/2000/svg">
<path d="M30.8333 9.24992C30.8333 5.90759 25.1862 3.08325 18.5 3.08325C11.8138 3.08325 6.16667 5.90759 6.16667 9.24992V12.3333C6.16667 15.6756 11.8138 18.4999 18.5 18.4999C25.1862 18.4999 30.8333 15.6756 30.8333 12.3333V9.24992ZM18.5 29.2916C11.8138 29.2916 6.16667 26.4673 6.16667 23.1249V27.7499C6.16667 31.0923 11.8138 33.9166 18.5 33.9166C25.1862 33.9166 30.8333 31.0923 30.8333 27.7499V23.1249C30.8333 26.4673 25.1862 29.2916 18.5 29.2916Z" fill="black"/>
<path d="M30.8333 15.4167C30.8333 18.7591 25.1862 21.5834 18.5 21.5834C11.8138 21.5834 6.16667 18.7591 6.16667 15.4167V20.0417C6.16667 23.3841 11.8138 26.2084 18.5 26.2084C25.1862 26.2084 30.8333 23.3841 30.8333 20.0417V15.4167Z" fill="black"/>
</svg>