<svg width="36" height="37" viewBox="0 0 36 37" fill="none" xmlns="http://www.w3.org/2000/svg">
<path d="M16.1708 31.2834L16.0943 31.4129C16.052 31.4645 15.9993 31.5059 15.9399 31.5344C15.8804 31.5628 15.8156 31.5776 15.75 31.5776C15.6844 31.5776 15.6196 31.5628 15.5602 31.5344C15.5007 31.5059 15.448 31.4645 15.4058 31.4129L15.3293 31.2834L15.174 30.8787L15.75 31.1123L16.3238 30.881L16.1708 31.2834ZM15.3293 5.71642C15.3616 5.62866 15.4192 5.55312 15.4944 5.4998C15.5695 5.44649 15.6587 5.41794 15.75 5.41794C15.8413 5.41794 15.9305 5.44649 16.0056 5.4998C16.0808 5.55312 16.1384 5.62866 16.1708 5.71642L18.4928 11.7705C18.8322 12.655 19.3449 13.4583 19.999 14.1306C20.6531 14.8029 21.4347 15.3298 22.2953 15.6787L27.7943 17.9056L28.0215 18.4976L27.7965 19.0873L22.2953 21.3165L21.9735 21.4553C20.3819 22.2008 19.134 23.5522 18.4928 25.2247L16.3238 30.8764L15.75 31.11L15.174 30.8787L13.0073 25.2247C12.366 23.5522 11.1181 22.2008 9.52651 21.4553L9.20476 21.3165L3.30976 18.93C3.22438 18.8968 3.15087 18.8376 3.099 18.7603C3.04713 18.6831 3.01935 18.5915 3.01935 18.4976C3.01935 18.4038 3.04713 18.3121 3.099 18.2349C3.15087 18.1576 3.22438 18.0984 3.30976 18.0652L3.70351 17.9056L9.20476 15.6787C10.8321 15.0196 12.1469 13.737 12.8723 12.1012L13.0073 11.7705L15.3293 5.71642ZM15.0998 12.6215C14.2439 14.8505 12.5799 16.6512 10.458 17.6443L10.0305 17.8293L8.38126 18.4999L10.0305 19.1682C11.1777 19.6334 12.2196 20.3359 13.0917 21.2321C13.9637 22.1284 14.6472 23.1992 15.0998 24.3783L15.75 26.071L16.4025 24.3783C16.8548 23.1995 17.538 22.1287 18.4096 21.2325C19.2812 20.3362 20.3227 19.6336 21.4695 19.1682L23.1165 18.4999L21.4695 17.8293C19.3016 16.9508 17.5497 15.2423 16.5825 13.0632L16.4025 12.6239L15.75 10.9265L15.0998 12.6215ZM28.188 18.0675C28.2734 18.1008 28.3469 18.16 28.3988 18.2372C28.4506 18.3144 28.4784 18.4061 28.4784 18.4999C28.4784 18.5938 28.4506 18.6854 28.3988 18.7626C28.3469 18.8399 28.2734 18.8991 28.188 18.9324L27.7943 19.0896L28.0215 18.4976L27.7965 17.9079L28.188 18.0675ZM27.8168 6.62754C28.3208 7.55485 29.1195 8.28329 30.0915 8.67873L30.969 9.03485C31.011 9.0519 31.047 9.08152 31.0724 9.11988C31.0977 9.15823 31.1113 9.20354 31.1113 9.24992C31.1113 9.2963 31.0977 9.3416 31.0724 9.37996C31.047 9.41831 31.011 9.44793 30.969 9.46498L30.7733 9.5436L30.0915 9.8211L29.6685 10.02C28.7047 10.5341 27.9543 11.3891 27.5558 12.4273L27.2858 13.128L27.2093 13.3292L27.1733 13.3939C27.1521 13.4201 27.1257 13.4412 27.0957 13.4556C27.0658 13.4701 27.0331 13.4776 27 13.4776C26.9669 13.4776 26.9342 13.4701 26.9043 13.4556C26.8743 13.4412 26.8479 13.4201 26.8268 13.3939L26.7908 13.3292L26.712 13.128L26.442 12.4273C26.0445 11.3899 25.2959 10.535 24.3338 10.02L23.9085 9.8211L23.031 9.46498C22.989 9.44793 22.953 9.41831 22.9277 9.37996C22.9023 9.3416 22.8887 9.2963 22.8887 9.24992C22.8887 9.20354 22.9023 9.15823 22.9277 9.11988C22.953 9.08152 22.989 9.0519 23.031 9.03485L23.2245 8.95392L23.9085 8.67642C24.8805 8.28329 25.677 7.55485 26.181 6.62754L27 6.29685L27.8168 6.62754ZM26.7908 5.17067C26.8073 5.12753 26.8362 5.09052 26.8735 5.06444C26.9108 5.03836 26.9549 5.02441 27 5.02441C27.0451 5.02441 27.0892 5.03836 27.1265 5.06444C27.1639 5.09052 27.1927 5.12753 27.2093 5.17067L27.5558 6.07254C27.6308 6.26371 27.7178 6.44871 27.8168 6.62754L27 6.29685L26.181 6.62754L26.2508 6.50729L26.4443 6.07254L26.7908 5.17067ZM27.9585 21.2449C27.9721 21.2109 27.9951 21.1819 28.0248 21.1615C28.0544 21.1411 28.0893 21.1301 28.125 21.1301C28.1607 21.1301 28.1956 21.1411 28.2252 21.1615C28.2549 21.1819 28.2779 21.2109 28.2915 21.2449C28.7407 22.4169 29.4197 23.4815 30.2864 24.3722C31.1531 25.263 32.1888 25.9609 33.3293 26.4225C33.3623 26.4365 33.3905 26.4602 33.4104 26.4907C33.4303 26.5211 33.4409 26.557 33.4409 26.5937C33.4409 26.6303 33.4303 26.6662 33.4104 26.6967C33.3905 26.7271 33.3623 26.7509 33.3293 26.7648L33.1718 26.8342C32.0669 27.3063 31.0655 28.0017 30.2272 28.8793C29.3889 29.7568 28.7306 30.7985 28.2915 31.9425L28.2645 31.9934C28.2476 32.0142 28.2265 32.031 28.2025 32.0425C28.1786 32.0541 28.1525 32.06 28.1261 32.06C28.0997 32.06 28.0736 32.0541 28.0497 32.0425C28.0258 32.031 28.0047 32.0142 27.9878 31.9934L27.9585 31.9402C27.1094 29.7253 25.4564 27.936 23.3483 26.9498L22.9208 26.7648C22.8877 26.7509 22.8595 26.7271 22.8396 26.6967C22.8198 26.6662 22.8092 26.6303 22.8092 26.5937C22.8092 26.557 22.8198 26.5211 22.8396 26.4907C22.8595 26.4602 22.8877 26.4365 22.9208 26.4225C24.0612 25.9609 25.0969 25.263 25.9636 24.3722C26.8303 23.4815 27.5094 22.4169 27.9585 21.2449ZM28.125 25.3704C27.7575 25.8097 27.36 26.2175 26.9325 26.5937C27.36 26.9714 27.7575 27.3784 28.125 27.8147C28.4925 27.3768 28.8885 26.9698 29.313 26.5937C28.8878 26.2162 28.4907 25.8088 28.125 25.3704Z" fill="black"/>
</svg>