<svg width="33" height="34" viewBox="0 0 33 34" fill="none" xmlns="http://www.w3.org/2000/svg">
<path d="M15.125 11.3334H17.875V12.7501H15.125V11.3334ZM15.125 5.66675H17.875V7.08341H15.125V5.66675ZM15.125 14.1667H17.875V15.5834H15.125V14.1667Z" fill="black"/>
<path d="M28.875 17V12.75C24.6831 12.7486 20.6216 14.2514 17.3883 17H15.6117C12.3784 14.2514 8.31688 12.7486 4.125 12.75V17C3.76033 17 3.41059 17.1493 3.15273 17.4149C2.89487 17.6806 2.75 18.0409 2.75 18.4167V21.25C2.75 21.6257 2.89487 21.9861 3.15273 22.2517C3.41059 22.5174 3.76033 22.6667 4.125 22.6667V28.3333C8.72042 28.3286 13.1452 30.1268 16.5 33.3625C19.8586 30.1329 24.2809 28.3357 28.875 28.3333V22.6667C29.2397 22.6667 29.5894 22.5174 29.8473 22.2517C30.1051 21.9861 30.25 21.6257 30.25 21.25V18.4167C30.25 18.0409 30.1051 17.6806 29.8473 17.4149C29.5894 17.1493 29.2397 17 28.875 17Z" fill="black"/>
<path d="M12.375 7.08333C13.1344 7.08333 13.75 6.44907 13.75 5.66667C13.75 4.88426 13.1344 4.25 12.375 4.25C11.6156 4.25 11 4.88426 11 5.66667C11 6.44907 11.6156 7.08333 12.375 7.08333Z" fill="black"/>
<path d="M20.625 7.08333C21.3844 7.08333 22 6.44907 22 5.66667C22 4.88426 21.3844 4.25 20.625 4.25C19.8656 4.25 19.25 4.88426 19.25 5.66667C19.25 6.44907 19.8656 7.08333 20.625 7.08333Z" fill="black"/>
<path d="M22 11.3333H11C9.90632 11.3322 8.85774 10.8841 8.08439 10.0873C7.31104 9.29051 6.87609 8.21016 6.875 7.08333V4.25C6.87609 3.12318 7.31104 2.04282 8.08439 1.24604C8.85774 0.449253 9.90632 0.00112514 11 0L22 0C23.0937 0.00112514 24.1423 0.449253 24.9156 1.24604C25.689 2.04282 26.1239 3.12318 26.125 4.25V7.08333C26.1239 8.21016 25.689 9.29051 24.9156 10.0873C24.1423 10.8841 23.0937 11.3322 22 11.3333ZM11 2.83333C10.6353 2.83333 10.2856 2.98259 10.0277 3.24827C9.76987 3.51394 9.625 3.87428 9.625 4.25V7.08333C9.625 7.45906 9.76987 7.81939 10.0277 8.08507C10.2856 8.35074 10.6353 8.5 11 8.5H22C22.3647 8.5 22.7144 8.35074 22.9723 8.08507C23.2301 7.81939 23.375 7.45906 23.375 7.08333V4.25C23.375 3.87428 23.2301 3.51394 22.9723 3.24827C22.7144 2.98259 22.3647 2.83333 22 2.83333H11Z" fill="black"/>
</svg>