<svg width="80" height="80" viewBox="0 0 80 80" fill="none" xmlns="http://www.w3.org/2000/svg">
<path d="M20 35H35V80H20V35ZM25 75H30V40H25V75ZM40 45H55V80H40V45ZM45 75H50V50H45V75ZM0 55H15V80H0V55ZM5 75H10V60H5V75ZM60 25H75V80H60V25ZM65 75H70V30H65V75ZM54.2578 24.2578C54.7526 25.3255 55 26.4062 55 27.5C55 28.5417 54.8047 29.5182 54.4141 30.4297C54.0234 31.3411 53.4896 32.1354 52.8125 32.8125C52.1354 33.4896 51.3411 34.0234 50.4297 34.4141C49.5182 34.8047 48.5417 35 47.5 35C46.4583 35 45.4818 34.8047 44.5703 34.4141C43.6589 34.0234 42.8646 33.4896 42.1875 32.8125C41.5104 32.1354 40.9766 31.3411 40.5859 30.4297C40.1953 29.5182 40 28.5417 40 27.5V27.0312C40 26.875 40.013 26.7188 40.0391 26.5625L32.6953 22.8906C32.0182 23.5677 31.224 24.0885 30.3125 24.4531C29.401 24.8177 28.4635 25 27.5 25C26.4062 25 25.3255 24.7526 24.2578 24.2578L14.2578 34.2578C14.7526 35.3255 15 36.4062 15 37.5C15 38.5417 14.8047 39.5182 14.4141 40.4297C14.0234 41.3411 13.4896 42.1354 12.8125 42.8125C12.1354 43.4896 11.3411 44.0234 10.4297 44.4141C9.51823 44.8047 8.54167 45 7.5 45C6.45833 45 5.48177 44.8047 4.57031 44.4141C3.65885 44.0234 2.86458 43.4896 2.1875 42.8125C1.51042 42.1354 0.976562 41.3411 0.585938 40.4297C0.195312 39.5182 0 38.5417 0 37.5C0 36.4583 0.195312 35.4818 0.585938 34.5703C0.976562 33.6589 1.51042 32.8646 2.1875 32.1875C2.86458 31.5104 3.65885 30.9766 4.57031 30.5859C5.48177 30.1953 6.45833 30 7.5 30C8.59375 30 9.67448 30.2474 10.7422 30.7422L20.7422 20.7422C20.2474 19.6745 20 18.5938 20 17.5C20 16.4583 20.1953 15.4818 20.5859 14.5703C20.9766 13.6589 21.5104 12.8646 22.1875 12.1875C22.8646 11.5104 23.6589 10.9766 24.5703 10.5859C25.4818 10.1953 26.4583 10 27.5 10C28.5417 10 29.5182 10.1953 30.4297 10.5859C31.3411 10.9766 32.1354 11.5104 32.8125 12.1875C33.4896 12.8646 34.0234 13.6589 34.4141 14.5703C34.8047 15.4818 35 16.4583 35 17.5V17.9688C35 18.125 34.987 18.2812 34.9609 18.4375L42.3047 22.1094C42.9818 21.4323 43.776 20.9115 44.6875 20.5469C45.599 20.1823 46.5365 20 47.5 20C48.5938 20 49.6745 20.2474 50.7422 20.7422L60.7422 10.7422C60.2474 9.67448 60 8.59375 60 7.5C60 6.45833 60.1953 5.48177 60.5859 4.57031C60.9766 3.65885 61.5104 2.86458 62.1875 2.1875C62.8646 1.51042 63.6589 0.976562 64.5703 0.585938C65.4818 0.195312 66.4583 0 67.5 0C68.5417 0 69.5182 0.195312 70.4297 0.585938C71.3411 0.976562 72.1354 1.51042 72.8125 2.1875C73.4896 2.86458 74.0234 3.65885 74.4141 4.57031C74.8047 5.48177 75 6.45833 75 7.5C75 8.54167 74.8047 9.51823 74.4141 10.4297C74.0234 11.3411 73.4896 12.1354 72.8125 12.8125C72.1354 13.4896 71.3411 14.0234 70.4297 14.4141C69.5182 14.8047 68.5417 15 67.5 15C66.4062 15 65.3255 14.7526 64.2578 14.2578L54.2578 24.2578ZM7.5 40C8.17708 40 8.76302 39.7526 9.25781 39.2578C9.7526 38.763 10 38.1771 10 37.5C10 36.8229 9.7526 36.237 9.25781 35.7422C8.76302 35.2474 8.17708 35 7.5 35C6.82292 35 6.23698 35.2474 5.74219 35.7422C5.2474 36.237 5 36.8229 5 37.5C5 38.1771 5.2474 38.763 5.74219 39.2578C6.23698 39.7526 6.82292 40 7.5 40ZM67.5 5C66.8229 5 66.237 5.2474 65.7422 5.74219C65.2474 6.23698 65 6.82292 65 7.5C65 8.17708 65.2474 8.76302 65.7422 9.25781C66.237 9.7526 66.8229 10 67.5 10C68.1771 10 68.763 9.7526 69.2578 9.25781C69.7526 8.76302 70 8.17708 70 7.5C70 6.82292 69.7526 6.23698 69.2578 5.74219C68.763 5.2474 68.1771 5 67.5 5ZM27.5 20C28.1771 20 28.763 19.7526 29.2578 19.2578C29.7526 18.763 30 18.1771 30 17.5C30 16.8229 29.7526 16.237 29.2578 15.7422C28.763 15.2474 28.1771 15 27.5 15C26.8229 15 26.237 15.2474 25.7422 15.7422C25.2474 16.237 25 16.8229 25 17.5C25 18.1771 25.2474 18.763 25.7422 19.2578C26.237 19.7526 26.8229 20 27.5 20ZM47.5 30C48.1771 30 48.763 29.7526 49.2578 29.2578C49.7526 28.763 50 28.1771 50 27.5C50 26.8229 49.7526 26.237 49.2578 25.7422C48.763 25.2474 48.1771 25 47.5 25C46.8229 25 46.237 25.2474 45.7422 25.7422C45.2474 26.237 45 26.8229 45 27.5C45 28.1771 45.2474 28.763 45.7422 29.2578C46.237 29.7526 46.8229 30 47.5 30Z" fill="#5761D7"/>
</svg>
