<svg width="101" height="101" viewBox="0 0 101 101" fill="none" xmlns="http://www.w3.org/2000/svg">
<path d="M88.375 27.3542C88.375 31.2606 86.8232 35.007 84.0609 37.7693C81.2987 40.5315 77.5523 42.0833 73.6458 42.0833C69.7394 42.0833 65.993 40.5315 63.2307 37.7693C60.4685 35.007 58.9167 31.2606 58.9167 27.3542C58.9167 23.4477 60.4685 19.7013 63.2307 16.9391C65.993 14.1768 69.7394 12.625 73.6458 12.625C77.5523 12.625 81.2987 14.1768 84.0609 16.9391C86.8232 19.7013 88.375 23.4477 88.375 27.3542ZM12.625 27.3542C12.625 20.4104 12.625 16.9385 14.7839 14.7839C16.9385 12.625 20.4104 12.625 27.3542 12.625C34.2979 12.625 37.7698 12.625 39.9245 14.7839C42.0833 16.9385 42.0833 20.4104 42.0833 27.3542C42.0833 34.2979 42.0833 37.7698 39.9245 39.9245C37.7698 42.0833 34.2979 42.0833 27.3542 42.0833C20.4104 42.0833 16.9385 42.0833 14.7839 39.9245C12.625 37.7698 12.625 34.2979 12.625 27.3542ZM12.625 73.6458C12.625 66.7021 12.625 63.2302 14.7839 61.0755C16.9385 58.9167 20.4104 58.9167 27.3542 58.9167C34.2979 58.9167 37.7698 58.9167 39.9245 61.0755C42.0833 63.2302 42.0833 66.7021 42.0833 73.6458C42.0833 80.5896 42.0833 84.0615 39.9245 86.2161C37.7698 88.375 34.2979 88.375 27.3542 88.375C20.4104 88.375 16.9385 88.375 14.7839 86.2161C12.625 84.0615 12.625 80.5896 12.625 73.6458ZM58.9167 73.6458C58.9167 66.7021 58.9167 63.2302 61.0755 61.0755C63.2302 58.9167 66.7021 58.9167 73.6458 58.9167C80.5896 58.9167 84.0615 58.9167 86.2161 61.0755C88.375 63.2302 88.375 66.7021 88.375 73.6458C88.375 80.5896 88.375 84.0615 86.2161 86.2161C84.0615 88.375 80.5896 88.375 73.6458 88.375C66.7021 88.375 63.2302 88.375 61.0755 86.2161C58.9167 84.0615 58.9167 80.5896 58.9167 73.6458Z" stroke="#5761D7" stroke-width="5.26957"/>
<path d="M73.6457 42.0837V58.917M58.9165 73.6462H42.0832M42.0832 27.3545H58.9165" stroke="#5761D7" stroke-width="5.26957" stroke-linecap="round" stroke-linejoin="round"/>
</svg>
